<?xml version="1.0" encoding="utf-8"?>
<!-- Generator: Adobe Illustrator 20.1.0, SVG Export Plug-In . SVG Version: 6.00 Build 0)  -->
<svg version="1.1" id="Layer_1" xmlns:figma="http://www.figma.com/figma/ns"
	 xmlns="http://www.w3.org/2000/svg" xmlns:xlink="http://www.w3.org/1999/xlink" x="0px" y="0px" viewBox="0 0 20 20"
	 enable-background="new 0 0 20 20" xml:space="preserve">
<path id="path5_fill" fill="#BDBDBD" d="M13.5,8.5c0,1.9-1.5,3.5-3.5,3.5c-1.9,0-3.5-1.5-3.5-3.5C6.5,6.5,8.1,5,10,5
	C11.9,5,13.5,6.5,13.5,8.5z"/>
<path fill="#BDBDBD" d="M10,0C4.5,0,0,4.5,0,10c0,3.4,1.7,6.4,4.2,8.2C5.9,19.3,7.9,20,10,20c2.1,0,4.1-0.7,5.8-1.8
	c2.6-1.8,4.2-4.8,4.2-8.2C20,4.5,15.5,0,10,0z M15.2,16c-0.9-2-2.9-3.4-5.2-3.4c-2.3,0-4.3,1.4-5.2,3.4C3.1,14.6,2,12.4,2,10
	c0-4.4,3.6-8,8-8s8,3.6,8,8C18,12.4,16.9,14.6,15.2,16z"/>
</svg>
