<svg xmlns="http://www.w3.org/2000/svg" viewBox="0 0 19 19"><title>account_1</title><path d="M19,11.21V7.79l-2.14-.35a8.53,8.53,0,0,0-.71-1.65L17.46,4,15,1.53l-1.78,1.3a6.37,6.37,0,0,0-1.66-.71L11.28,0H7.84L7.48,2.12a5,5,0,0,0-1.66.71L4,1.53,1.54,4,2.73,5.78A9.91,9.91,0,0,0,2,7.43L0,7.67v3.42l2.14,0.35a5,5,0,0,0,.71,1.65L1.66,14.87l2.49,2.48,1.78-1.18C6.41,16.4,7,16.64,7.6,16.88L8,19h3.56l0.36-2.12a5,5,0,0,0,1.66-.71l1.78,1.3L17.81,15l-1.31-1.77a6.29,6.29,0,0,0,.71-1.65ZM9.5,13A3.49,3.49,0,0,1,5.94,9.44,3.49,3.49,0,0,1,9.5,5.9a3.49,3.49,0,0,1,3.56,3.54A3.49,3.49,0,0,1,9.5,13Z" fill="#bdbdbd"/></svg>