<svg xmlns="http://www.w3.org/2000/svg" viewBox="0 0 11 12"><title>calendar icon_1</title><path d="M2.44,6H3.67V7.2H2.44V6Z" fill="#70c1ba"/><path d="M4.89,6H6.11V7.2H4.89V6Z" fill="#70c1ba"/><path d="M7.33,6H8.56V7.2H7.33V6Z" fill="#70c1ba"/><path d="M7.33,8.4H8.56V9.6H7.33V8.4Z" fill="#70c1ba"/><path d="M4.89,8.4H6.11V9.6H4.89V8.4Z" fill="#70c1ba"/><path d="M2.44,8.4H3.67V9.6H2.44V8.4Z" fill="#70c1ba"/><path d="M8.56,1.2V0H7.33V1.2H3.67V0H2.44V1.2H0V3.6H0V12H11V3.6h0V1.2H8.56ZM10,11H1V4.6h9V11Z" fill="#70c1ba"/></svg>