<?xml version="1.0" encoding="utf-8"?>
<!-- Generator: Adobe Illustrator 20.1.0, SVG Export Plug-In . SVG Version: 6.00 Build 0)  -->
<svg version="1.1" id="Layer_1" xmlns:figma="http://www.figma.com/figma/ns"
	 xmlns="http://www.w3.org/2000/svg" xmlns:xlink="http://www.w3.org/1999/xlink" x="0px" y="0px" viewBox="0 0 20 20"
	 enable-background="new 0 0 20 20" xml:space="preserve">
<path fill="#BDBDBD" d="M10,0C4.5,0,0,4.5,0,10s4.5,10,10,10s10-4.5,10-10S15.5,0,10,0z M10,18c-4.4,0-8-3.6-8-8s3.6-8,8-8
	s8,3.6,8,8S14.4,18,10,18z"/>
<path id="path3_fill" fill="#BDBDBD" d="M14.2,7.3c0.4,0.4,0.4,1,0,1.4l-4,4c-0.4,0.4-1,0.4-1.4,0l-2-2c-0.4-0.4-0.4-1,0-1.4
	c0.4-0.4,1-0.4,1.4,0l1.3,1.3l3.3-3.3C13.2,6.9,13.8,6.9,14.2,7.3z"/>
</svg>
