<?xml version="1.0" encoding="UTF-8"?>
<svg width="20px" height="20px" viewBox="0 0 16 16" version="1.1" xmlns="http://www.w3.org/2000/svg" xmlns:xlink="http://www.w3.org/1999/xlink">
    <!-- Generator: Sketch 45.2 (43514) - http://www.bohemiancoding.com/sketch -->
    <title>discussion-notification</title>
    <desc>Created with Sketch.</desc>
    <defs></defs>
    <g id="Page-1" stroke="none" stroke-width="1" fill="none" fill-rule="evenodd">
        <g id="discussion-notification" fill-rule="nonzero" fill="#BDBDBD">
            <g id="Line-5" transform="translate(6.000000, 14.000000)">
                <g id="path0_stroke-link">
                    <path d="M1,0 C0.447715,0 0,0.44772 0,1 C0,1.552285 0.447715,2 1,2 L1,0 Z M3,2 C3.55228,2 4,1.552285 4,1 C4,0.44772 3.55228,0 3,0 L3,2 Z M1,2 L3,2 L3,0 L1,0 L1,2 Z" id="path0_stroke"></path>
                </g>
            </g>
            <g id="Vector-6" transform="translate(1.000000, 0.000000)">
                <g id="path1_stroke-link">
                    <path d="M2.29074,9.35925 L2.04299,8.39043 L2.29074,9.35925 Z M7.02325,11.999 L7.02325,12.999 L7.03199,12.999 L7.04072,12.9989 L7.02325,11.999 Z M7.02325,0 C5.49921,0 4.4221,0.666062 3.71336,1.666002 C3.05094,2.6006 2.7381,3.78464 2.54418,4.8327 C2.3486,5.89548 2.25496,6.92321 2.10849,7.67876 C2.03857,8.04592 1.984449,8.26405 1.896121,8.43341 C1.828638,8.571 1.850718,8.4396 2.04299,8.39043 L2.53848,10.32808 C3.16088,10.16892 3.50555,9.6938 3.69178,9.31409 C3.85716,8.96615 3.98787,8.4934 4.07254,8.05626 C4.23526,7.20321 4.32987,6.16862 4.5108,5.19658 C4.69338,4.20982 4.94529,3.38655 5.34506,2.82253 C5.69852,2.32385 6.18104,2 7.02325,2 L7.02325,0 Z M2.04299,8.39043 C0.766479,8.71685 0.000219,9.7556 2.56776913e-17,10.84392 C-0.00011,11.3836 0.193913,11.9379 0.618753,12.3588 C1.0496623,12.7857 1.639871,12.999 2.29074,12.999 L2.29074,10.99902 C2.18228,10.99902 2.11545,10.98182 2.07958,10.96826 C2.04482,10.95512 2.03082,10.94246 2.02634,10.93802 C2.02097,10.9327 1.999987,10.90961 2,10.84432 C2.00002,10.72275 2.0945,10.44161 2.53848,10.32808 L2.04299,8.39043 Z M2.29074,12.999 C3.15147,12.999 4.3346,12.999 5.30255,12.999 C5.78652,12.999 6.2167,12.999 6.52588,12.999 C6.68047,12.999 6.80481,12.999 6.89051,12.999 C6.93336,12.999 6.96654,12.999 6.98902,12.999 C7.00025,12.999 7.00881,12.999 7.01456,12.999 C7.01744,12.999 7.01961,12.999 7.02106,12.999 C7.02179,12.999 7.02234,12.999 7.0227,12.999 C7.02289,12.999 7.02302,12.999 7.02312,12.999 C7.02316,12.999 7.0232,12.999 7.02322,12.999 C7.02324,12.999 7.02325,12.999 7.02325,11.999 C7.02325,10.99902 7.02324,10.99902 7.02322,10.99902 C7.0232,10.99902 7.02316,10.99902 7.02312,10.99902 C7.02302,10.99902 7.02289,10.99902 7.0227,10.99902 C7.02234,10.99902 7.02179,10.99902 7.02106,10.99902 C7.01961,10.99902 7.01744,10.99902 7.01456,10.99902 C7.00881,10.99902 7.00025,10.99902 6.98902,10.99902 C6.96654,10.99902 6.93336,10.99902 6.89051,10.99902 C6.80481,10.99902 6.68047,10.99902 6.52588,10.99902 C6.2167,10.99902 5.78652,10.99902 5.30255,10.99902 C4.3346,10.99902 3.15147,10.99902 2.29074,10.99902 L2.29074,12.999 Z M7.02325,11.999 C7.04072,12.9989 7.04072,12.9989 7.04073,12.9989 C7.04075,12.9989 7.04077,12.9989 7.04081,12.9989 C7.0409,12.9989 7.04102,12.9989 7.04119,12.9989 C7.04155,12.9989 7.04207,12.9988 7.04279,12.9988 C7.04427,12.9988 7.04643,12.9988 7.04935,12.9987 C7.05526,12.9986 7.06394,12.9985 7.07548,12.9983 C7.09869,12.9979 7.13269,12.9973 7.17682,12.9966 C7.26537,12.9953 7.39303,12.9934 7.55178,12.9912 C7.86992,12.987 8.30869,12.9818 8.79821,12.9784 C9.77844,12.9716 10.94092,12.9715 11.7214,12.9984 L11.7901,10.99961 C10.97526,10.97176 9.77148,10.97162 8.78429,10.97849 C8.2901,10.98193 7.84488,10.98711 7.52494,10.9914 C7.36465,10.99355 7.23476,10.9955 7.14552,10.99689 C7.10075,10.99759 7.06579,10.99816 7.04227,10.99855 C7.03044,10.99875 7.02131,10.9989 7.01526,10.99901 C7.01219,10.99906 7.00982,10.9991 7.00827,10.99913 C7.00748,10.99914 7.00686,10.99915 7.00646,10.99916 C7.00625,10.99916 7.00609,10.99916 7.00598,10.99917 C7.00592,10.99917 7.00588,10.99917 7.00585,10.99917 C7.00581,10.99917 7.00579,10.99917 7.02325,11.999 Z M11.7214,12.9984 C12.371,13.0207 12.9563,12.8029 13.3801,12.3765 C13.7915,11.9626 13.9856,11.4182 13.9992,10.89041 C14.0269,9.81476 13.3185,8.72652 12.0034,8.3904 L11.5081,10.32811 C11.7289,10.38453 11.8454,10.48424 11.9078,10.56698 C11.9756,10.65699 12.002,10.75661 11.9999,10.83893 C11.9977,10.92292 11.9688,10.95939 11.9616,10.96658 C11.9583,10.96999 11.9513,10.97628 11.9334,10.98299 C11.9148,10.98996 11.8706,11.0024 11.7901,10.99961 L11.7214,12.9984 Z M12.0034,8.3904 C12.1954,8.43948 12.2175,8.5707 12.15,8.43324 C12.0617,8.26391 12.0076,8.04585 11.9376,7.67871 C11.7911,6.9232 11.6975,5.89552 11.502,4.83275 C11.3081,3.78472 10.9954,2.60066 10.33306,1.666053 C9.62438,0.666074 8.54731,0 7.02325,0 L7.02325,2 C7.86546,2 8.3479,2.32384 8.70128,2.82247 C9.10099,3.38648 9.35284,4.20974 9.53537,5.19653 C9.71625,6.16858 9.81083,7.20322 9.9736,8.05631 C10.0583,8.49348 10.18908,8.96629 10.35456,9.31426 C10.54093,9.69409 10.88576,10.16904 11.5081,10.32811 L12.0034,8.3904 Z" id="path1_stroke"></path>
                </g>
            </g>
        </g>
    </g>
</svg>
