<?xml version="1.0" encoding="utf-8"?>
<!-- Generator: Adobe Illustrator 20.1.0, SVG Export Plug-In . SVG Version: 6.00 Build 0)  -->
<svg version="1.1" id="Layer_1" xmlns:figma="http://www.figma.com/figma/ns"
	 xmlns="http://www.w3.org/2000/svg" xmlns:xlink="http://www.w3.org/1999/xlink" x="0px" y="0px" viewBox="0 0 20 20"
	 enable-background="new 0 0 20 20" xml:space="preserve">
<path fill="#C4C4C4" d="M10,0C4.5,0,0,4.5,0,10c0,1.8,0.5,3.5,1.3,5c0.2,0.4,0.1,1-0.1,1.7c0,0,0,0,0,0c-0.2,0.6-0.5,1.3-0.8,1.8
	c0.1,0.1,0.2,0.1,0.3,0.1c0.4,0.1,1.2,0,1.9-0.1c0,0,0,0,0,0c0.9-0.1,1.7-0.2,2,0c1.5,1,3.3,1.5,5.3,1.5c5.5,0,10-4.5,10-10
	S15.5,0,10,0z M10,18c-1.6,0-2.9-0.4-4.2-1.2c-0.5-0.3-1-0.4-1.2-0.4c-0.3,0-0.6,0-0.8,0c-0.1,0-0.2,0-0.4,0c0-0.2,0.1-0.4,0.1-0.6
	c0-0.5,0-1.2-0.4-1.9C2.3,12.7,2,11.5,2,10c0-4.4,3.6-8,8-8s8,3.6,8,8S14.4,18,10,18z"/>
<circle fill="#C4C4C4" cx="6" cy="10" r="1"/>
<circle fill="#C4C4C4" cx="10" cy="10" r="1"/>
<circle fill="#C4C4C4" cx="14" cy="10" r="1"/>
</svg>
