<svg xmlns="http://www.w3.org/2000/svg" viewBox="0 0 20 17"><title>history_1</title><path d="M0,1A1,1,0,0,1,1,0H3A1,1,0,0,1,4,1V16a1,1,0,0,1-1,1H1a1,1,0,0,1-1-1V1Z" fill="#c4c4c4"/><path d="M5.33,4.09a1,1,0,0,1,1-1h2a1,1,0,0,1,1,1V16a1,1,0,0,1-1,1h-2a1,1,0,0,1-1-1V4.09Z" fill="#c4c4c4"/><path d="M10.67,7.18a1,1,0,0,1,1-1h2a1,1,0,0,1,1,1V16a1,1,0,0,1-1,1h-2a1,1,0,0,1-1-1V7.18Z" fill="#c4c4c4"/><path d="M16,4.09a1,1,0,0,1,1-1h2a1,1,0,0,1,1,1V16a1,1,0,0,1-1,1H17a1,1,0,0,1-1-1V4.09Z" fill="#c4c4c4"/></svg>