<?xml version="1.0" encoding="utf-8"?>
<!-- Generator: Adobe Illustrator 20.1.0, SVG Export Plug-In . SVG Version: 6.00 Build 0)  -->
<svg version="1.1" id="Layer_1" xmlns:figma="http://www.figma.com/figma/ns"
   xmlns="http://www.w3.org/2000/svg" xmlns:xlink="http://www.w3.org/1999/xlink" x="0px" y="0px" viewBox="0 0 20 20"
   enable-background="new 0 0 20 20" xml:space="preserve" width="20">
<path fill="#FFFFFF" d="M10,0C4.5,0,0,4.5,0,10s4.5,10,10,10s10-4.5,10-10S15.5,0,10,0z M10,18c-4.4,0-8-3.6-8-8s3.6-8,8-8
  s8,3.6,8,8S14.4,18,10,18z"/>
<path fill="#FFFFFF" d="M16.2,6.8c-0.4-0.4-1-0.4-1.4,0l-3.3,3.3L9.2,7.8c-0.4-0.4-1-0.4-1.4,0l-6,6c-0.4,0.4-0.4,1,0,1.4
  c0.4,0.4,1,0.4,1.4,0l5.3-5.3l2.3,2.3c0.4,0.4,1,0.4,1.4,0l4-4C16.6,7.8,16.6,7.2,16.2,6.8z"/>
</svg>
