<?xml version="1.0" encoding="utf-8"?>
<!-- Generator: Adobe Illustrator 18.1.0, SVG Export Plug-In . SVG Version: 6.00 Build 0)  -->
<svg version="1.1" xmlns="http://www.w3.org/2000/svg" xmlns:xlink="http://www.w3.org/1999/xlink" x="0px" y="0px" width="30"
	 viewBox="-110 63.7 20 14" enable-background="new -110 63.7 20 14" xml:space="preserve">
<path fill="#BDBDBD" d="M-110,63.7v13.2c0,0,0,0,0,0c0.1,0.4,0.4,0.8,0.8,0.8c0,0,0,0,0,0h18.2c0,0,0,0,0,0c0.5,0,0.9-0.4,0.9-0.9
	c0,0,0,0,0,0V63.7H-110z M-93.8,65.7l-6.2,5.4l-6.2-5.4H-93.8z M-92,75.7h-16v-8.9l7.4,6.5c0,0,0,0,0,0c0.2,0.1,0.3,0.2,0.5,0.2
	c0.2,0,0.4-0.1,0.6-0.2c0,0,0,0,0,0l7.4-6.5V75.7z"/>
</svg>
