<?xml version="1.0" encoding="utf-8"?>
<!-- Generator: Adobe Illustrator 18.1.0, SVG Export Plug-In . SVG Version: 6.00 Build 0)  -->
<svg version="1.1" xmlns:figma="http://www.figma.com/figma/ns"
	 xmlns="http://www.w3.org/2000/svg" xmlns:xlink="http://www.w3.org/1999/xlink" x="0px" y="0px" viewBox="-112 62.7 16 17" width="20"
	 enable-background="new -112 62.7 16 17" xml:space="preserve">
<path fill="#BDBDBD" id="path0_stroke" fill="#BDBDBD" d="M-110,76.9l-1-0.1l0,0.6l0.5,0.3L-110,76.9z M-98,76.9l0.6,0.8l0.5-0.3l0-0.6L-98,76.9z
	 M-109,76.9c0.1-2.5,2.3-4.6,5-4.6v-2c-3.7,0-6.8,2.9-7,6.5L-109,76.9z M-104,72.3c2.7,0,4.9,2.1,5,4.6l2-0.1
	c-0.2-3.6-3.3-6.5-7-6.5V72.3z M-98.6,76.1c-1.6,1.1-3.4,1.7-5.4,1.7v2c2.4,0,4.7-0.8,6.6-2L-98.6,76.1z M-104,77.7
	c-2.1,0-3.9-0.6-5.4-1.7l-1.1,1.6c1.8,1.2,4.2,2,6.6,2V77.7z"/>
<path fill="#BDBDBD" id="path1_stroke" fill="#BDBDBD" d="M-101.4,67.3c0,1.4-1.2,2.6-2.6,2.6v2c2.5,0,4.6-2.1,4.6-4.6H-101.4z M-104,69.9
	c-1.4,0-2.6-1.2-2.6-2.6h-2c0,2.5,2.1,4.6,4.6,4.6V69.9z M-106.6,67.3c0-1.4,1.2-2.6,2.6-2.6v-2c-2.5,0-4.6,2.1-4.6,4.6H-106.6z
	 M-104,64.7c1.4,0,2.6,1.2,2.6,2.6h2c0-2.5-2.1-4.6-4.6-4.6V64.7z"/>
</svg>
