<?xml version="1.0" encoding="utf-8"?>
<!-- Generator: Adobe Illustrator 18.1.0, SVG Export Plug-In . SVG Version: 6.00 Build 0)  -->
<svg version="1.1" xmlns:figma="http://www.figma.com/figma/ns"
	 xmlns="http://www.w3.org/2000/svg" xmlns:xlink="http://www.w3.org/1999/xlink" x="0px" y="0px" viewBox="-112.6 62.7 14.6 16" width="20"
	 enable-background="new -112.6 62.7 14.6 16" xml:space="preserve">
<title>discussion_search_icon</title>
<desc>Created using Figma</desc>
<path fill="#BDBDBD" d="M-104.5,62.7c-3.6,0-6.5,2.9-6.5,6.5c0,1.8,0.7,3.4,1.9,4.6l-3.2,3.2c-0.4,0.4-0.4,1,0,1.4
	c0.4,0.4,1,0.4,1.4,0l3.4-3.4c0.9,0.5,1.9,0.7,3,0.7c3.6,0,6.5-2.9,6.5-6.5S-100.9,62.7-104.5,62.7z M-104.5,73.7
	c-2.5,0-4.5-2-4.5-4.5s2-4.5,4.5-4.5s4.5,2,4.5,4.5S-102,73.7-104.5,73.7z"/>
</svg>
