<svg viewBox="0 0 20 20" version="1.1" xmlns="http://www.w3.org/2000/svg" xmlns:xlink="http://www.w3.org/1999/xlink">
<title>settings-icon</title>
<desc>Created using Figma</desc>
<g id="Canvas" transform="translate(771 1204)">
<g id="settings-icon">
<g id="Vector (Stroke)">
<use xlink:href="#path0_fill" transform="translate(-771 -1204)" fill="#BDBDBD"/>
</g>
<g id="Ellipse 15 (Stroke)">
<use xlink:href="#path1_fill" transform="translate(-765 -1198)" fill="#BDBDBD"/>
</g>
</g>
</g>
<defs>
<path id="path0_fill" fill-rule="evenodd" d="M 7.43877 0.834601C 7.51956 0.352873 7.93654 0 8.425 0L 11.6875 0C 12.1968 0 12.6247 0.382753 12.6813 0.888887L 12.8349 2.26267C 13.019 2.33356 13.2105 2.41562 13.403 2.50745L 14.586 1.64526C 14.9831 1.35592 15.5314 1.39782 15.8799 1.74411L 18.2424 4.09194C 18.5941 4.44148 18.6366 4.99599 18.3421 5.395L 17.4667 6.58131C 17.5622 6.77986 17.6486 6.96929 17.7243 7.15395L 19.1634 7.39232C 19.646 7.47226 20 7.88966 20 8.37888L 20 11.6211C 20 12.0982 19.6629 12.5089 19.1949 12.6019L 18.0811 12.8233C 18.0059 13.0208 17.9173 13.2278 17.817 13.436L 18.6796 14.605C 18.9741 15.004 18.9316 15.5585 18.5799 15.9081L 16.2174 18.2559C 15.8689 18.6022 15.3206 18.6441 14.9235 18.3547L 13.7495 17.4991C 13.5486 17.5995 13.344 17.6902 13.1331 17.7682L 12.8987 19.1654C 12.8179 19.6471 12.401 20 11.9125 20L 8.5375 20C 8.04904 20 7.63206 19.6471 7.55127 19.1654L 7.30669 17.707C 7.10547 17.6253 6.90527 17.5422 6.7127 17.4582L 5.48981 18.2684C 5.0943 18.5305 4.56912 18.4785 4.2326 18.1441L 1.8701 15.7963C 1.53039 15.4587 1.47774 14.9276 1.74455 14.5299L 2.52815 13.3618C 2.42325 13.1559 2.32855 12.9461 2.24738 12.7295L 0.836595 12.4959C 0.35395 12.4159 0 11.9985 0 11.5093L 0 8.26708C 0 7.75972 0.379946 7.33276 0.883875 7.27385L 2.19307 7.12078C 2.26085 6.9398 2.33501 6.74982 2.4283 6.54529L 1.63205 5.35834C 1.36524 4.9606 1.41789 4.42954 1.7576 4.09194L 4.1201 1.74411C 4.46856 1.39782 5.01695 1.35592 5.41397 1.64526L 6.58803 2.50089C 6.7889 2.40051 6.99349 2.30982 7.20445 2.23182L 7.43877 0.834601ZM 9.27126 2L 9.07373 3.17782C 9.005 3.58763 8.69 3.91223 8.28244 3.99324C 7.84779 4.07069 7.55391 4.22569 7.02464 4.54213C 6.68057 4.74729 6.24727 4.72732 5.92353 4.49139L 4.92511 3.76376L 3.75246 4.92913L 4.41795 5.92117C 4.63437 6.24378 4.64436 6.66254 4.44357 6.99511C 4.25528 7.29219 4.15705 7.5627 4.031 7.90981C 3.97596 8.06137 3.91563 8.22752 3.84017 8.41687C 3.7035 8.75644 3.3922 8.99421 3.02863 9.03671L 2 9.15698L 2 10.6613L 3.18841 10.8582C 3.59822 10.926 3.92339 11.2402 4.00534 11.6474C 4.08277 12.0774 4.23784 12.3674 4.55607 12.8931C 4.75686 13.2257 4.74687 13.6444 4.53045 13.967L 3.86496 14.9591L 5.06445 16.1511L 6.07269 15.4831C 6.37025 15.286 6.75033 15.2624 7.06999 15.4212C 7.47384 15.6228 7.98483 15.8259 8.53385 16.0442L 8.5694 16.0583C 8.89446 16.1875 9.12837 16.4772 9.18623 16.8222L 9.38376 18L 11.0662 18L 11.2638 16.8222C 11.3325 16.4124 11.6475 16.0878 12.0551 16.0068C 12.4897 15.9293 12.7836 15.7743 13.3129 15.4579C 13.6569 15.2527 14.0902 15.2727 14.414 15.5086L 15.4124 16.2362L 16.5578 15.0979L 15.8329 14.1155C 15.5925 13.7898 15.5722 13.3514 15.7814 13.0049C 16.0802 12.5162 16.2491 12.0943 16.3427 11.7126C 16.437 11.3379 16.7386 11.051 17.1176 10.9757L 18 10.8003L 18 9.22687L 16.8116 9.03004C 16.419 8.96501 16.1023 8.67337 16.0052 8.28744C 15.9306 7.96758 15.7676 7.64405 15.4712 7.05585C 15.4504 7.01447 15.4289 6.97179 15.4067 6.92771C 15.2373 6.59104 15.2716 6.18775 15.4954 5.8845L 16.2203 4.90206L 15.0749 3.76376L 14.0765 4.49139C 13.7527 4.72732 13.3194 4.74729 12.9754 4.54213C 12.4828 4.24476 12.0565 4.07627 11.6714 3.98292C 11.2654 3.88207 10.9652 3.53922 10.9187 3.12354L 10.7931 2L 9.27126 2Z"/>
<path id="path1_fill" fill-rule="evenodd" d="M 8 4C 8 6.20914 6.20914 8 4 8C 1.79086 8 0 6.20914 0 4C 0 1.79086 1.79086 0 4 0C 6.20914 0 8 1.79086 8 4ZM 4 6.28571C 5.26236 6.28571 6.28571 5.26236 6.28571 4C 6.28571 2.73763 5.26236 1.71429 4 1.71429C 2.73763 1.71429 1.71429 2.73763 1.71429 4C 1.71429 5.26236 2.73763 6.28571 4 6.28571Z"/>
</defs>
</svg>
