<svg width="52" height="53" viewBox="0 0 52 53" fill="none" xmlns="http://www.w3.org/2000/svg">
<path fill-rule="evenodd" clip-rule="evenodd" d="M2.10893 0.339792C1.13298 0.339792 0.338987 1.13567 0.338987 2.11401V50.7242C0.338987 51.7025 1.13298 52.4984 2.10893 52.4984H49.3862C50.3617 52.4984 51.1557 51.7025 51.1557 50.7242V2.11401C51.1557 1.13567 50.3617 0.339792 49.3862 0.339792H2.10893ZM2.10893 52.8382C0.94603 52.8382 0 51.8898 0 50.7242V2.11401C0 0.948357 0.94603 0 2.10893 0H49.3862C50.5489 0 51.4947 0.948357 51.4947 2.11401V50.7242C51.4947 51.8898 50.5489 52.8382 49.3862 52.8382H2.10893Z" fill="#141414"/>
<path fill-rule="evenodd" clip-rule="evenodd" d="M51.2464 6.93342H0.169837C0.0762765 6.93342 0.000343323 6.8573 0.000343323 6.76352C0.000343323 6.66974 0.0762765 6.59363 0.169837 6.59363H51.2464C51.3396 6.59363 51.4159 6.66974 51.4159 6.76352C51.4159 6.8573 51.3396 6.93342 51.2464 6.93342Z" fill="#141414"/>
<path fill-rule="evenodd" clip-rule="evenodd" d="M6.88208 2.66375C6.45607 2.66375 6.10946 3.01117 6.10946 3.43819C6.10946 3.86529 6.45607 4.21263 6.88208 4.21263C7.30809 4.21263 7.6547 3.86529 7.6547 3.43819C7.6547 3.01117 7.30809 2.66375 6.88208 2.66375ZM6.88208 4.55241C6.26912 4.55241 5.77048 4.0526 5.77048 3.43819C5.77048 2.82379 6.26912 2.32397 6.88208 2.32397C7.49504 2.32397 7.99368 2.82379 7.99368 3.43819C7.99368 4.0526 7.49504 4.55241 6.88208 4.55241Z" fill="#141414"/>
<path fill-rule="evenodd" clip-rule="evenodd" d="M10.0892 2.66375C9.66322 2.66375 9.31652 3.01117 9.31652 3.43819C9.31652 3.86529 9.66322 4.21263 10.0892 4.21263C10.5153 4.21263 10.8619 3.86529 10.8619 3.43819C10.8619 3.01117 10.5153 2.66375 10.0892 2.66375ZM10.0892 4.55241C9.47627 4.55241 8.97753 4.0526 8.97753 3.43819C8.97753 2.82379 9.47627 2.32397 10.0892 2.32397C10.7022 2.32397 11.2009 2.82379 11.2009 3.43819C11.2009 4.0526 10.7022 4.55241 10.0892 4.55241Z" fill="#141414"/>
<path fill-rule="evenodd" clip-rule="evenodd" d="M4.61712 3.43852C4.61712 3.96011 4.19528 4.3829 3.67505 4.3829C3.15474 4.3829 2.73299 3.96011 2.73299 3.43852C2.73299 2.91693 3.15474 2.49414 3.67505 2.49414C4.19528 2.49414 4.61712 2.91693 4.61712 3.43852Z" fill="#FF4B33"/>
<path fill-rule="evenodd" clip-rule="evenodd" d="M3.67449 2.66375C3.24846 2.66375 2.90185 3.01117 2.90185 3.43819C2.90185 3.86529 3.24846 4.21263 3.67449 4.21263C4.10051 4.21263 4.44713 3.86529 4.44713 3.43819C4.44713 3.01117 4.10051 2.66375 3.67449 2.66375ZM3.67449 4.55241C3.06151 4.55241 2.56286 4.0526 2.56286 3.43819C2.56286 2.82379 3.06151 2.32397 3.67449 2.32397C4.28746 2.32397 4.78612 2.82379 4.78612 3.43819C4.78612 4.0526 4.28746 4.55241 3.67449 4.55241Z" fill="#141414"/>
<path fill-rule="evenodd" clip-rule="evenodd" d="M12.2387 47.0608V23.0608H9V47.0608H12.2387ZM24.1432 47.0608V34.9345H20.9045V47.0608H24.1432ZM18.4536 29.7134V47.0608H15.2149V29.7134H18.4536ZM30.4456 47.0608V38.5555H27.2069V47.0608H30.4456ZM36.6605 40.4924V47.0608H33.4217V40.4924H36.6605ZM42 47.0608V38.9766H38.7613V47.0608H42Z" fill="#C3B399"/>
<path d="M34.5002 27.1381L24.1213 32.5137L11.7795 14.2981L13.0366 13.598L9 11.0608L9.25949 15.7018L10.3173 15.1126L23.5561 34.6521L33.9376 29.2756L40.5906 39.0608L42 38.1682L34.5002 27.1381Z" fill="#73C1BA"/>
</svg>
