<svg width="253" height="161" viewBox="0 0 253 161" fill="none" xmlns="http://www.w3.org/2000/svg">
<path fill-rule="evenodd" clip-rule="evenodd" d="M48.8069 36.6858C47.9029 38.7908 47.8307 41.5719 49.2169 45.1325C51.4087 50.7626 55.7012 54.5683 59.6419 57.9964C59.71 58.0557 59.7779 58.1148 59.8459 58.1738C61.7242 59.8074 63.5295 61.3774 64.9073 63.0094C66.3417 64.7085 67.3685 66.5377 67.5292 68.6648C67.6348 70.0651 67.3122 71.6695 66.8331 73.3772C66.5319 74.4508 66.1542 75.6121 65.7608 76.8215C65.5298 77.5317 65.2933 78.2585 65.0639 78.994C63.8068 83.022 62.6907 87.5085 63.2864 92.1529C63.6698 95.142 64.558 97.2736 65.6553 98.9489C66.7597 100.635 68.0899 101.883 69.4183 103.11C69.4604 103.149 69.5023 103.187 69.5443 103.226C70.8143 104.398 72.0994 105.584 73.0355 107.097C74.02 108.688 74.6049 110.611 74.5052 113.238C74.3436 117.487 71.8327 120.282 69.1376 123.083C68.9743 123.253 68.81 123.423 68.6453 123.594C66.0604 126.269 63.3412 129.085 61.8194 133.359C59.8159 138.987 60.8713 144.388 62.4593 148.42C63.2522 150.434 64.1727 152.091 64.8943 153.245C65.2548 153.821 65.5649 154.271 65.7834 154.573C65.8384 154.649 65.8877 154.717 65.9303 154.774H112.484C112.554 154.684 112.641 154.57 112.743 154.431C113.034 154.039 113.449 153.459 113.94 152.715C114.922 151.226 116.204 149.089 117.401 146.491C119.8 141.286 121.827 134.304 120.488 127.041C119.25 120.325 115.699 116.296 112.147 113.139C111.323 112.406 110.501 111.723 109.704 111.06C109.639 111.006 109.574 110.952 109.509 110.898C108.655 110.187 107.829 109.495 107.082 108.803C105.597 107.425 104.351 105.98 103.788 104.245C102.358 99.8331 103.172 95.3898 104.101 90.9401C104.158 90.668 104.215 90.3958 104.273 90.1234C105.163 85.8929 106.062 81.6182 105.416 77.0688C104.338 69.4767 100.065 65.3372 95.3681 62.2774C93.788 61.2479 92.1893 60.358 90.6382 59.4945C89.8551 59.0586 89.0841 58.6293 88.3338 58.1924C86.1382 56.9138 84.1344 55.575 82.8064 53.8711C81.6633 52.4042 80.796 50.711 79.9879 48.9376C79.6896 48.2832 79.4019 47.6242 79.1116 46.9591C78.6032 45.7941 78.0867 44.6107 77.4912 43.4015C75.6464 39.6554 73.14 35.8794 68.2936 32.8437C64.5222 30.4814 58.3095 30.0785 53.7581 32.0559C51.5025 33.036 49.7133 34.575 48.8069 36.6858ZM112.811 155.448C113.332 155.874 113.332 155.874 113.332 155.873H113.333L113.335 155.871L113.342 155.861C113.348 155.854 113.357 155.843 113.368 155.829C113.381 155.813 113.396 155.794 113.415 155.77C113.429 155.752 113.446 155.73 113.465 155.707C113.548 155.599 113.669 155.441 113.822 155.236C114.126 154.826 114.556 154.225 115.061 153.459C116.072 151.927 117.39 149.728 118.621 147.056C121.079 141.724 123.22 134.443 121.81 126.796C120.495 119.664 116.701 115.385 113.039 112.131C112.197 111.382 111.359 110.685 110.565 110.025C110.499 109.97 110.433 109.915 110.368 109.861C109.511 109.148 108.712 108.478 107.995 107.814C106.554 106.477 105.52 105.226 105.067 103.828C103.761 99.802 104.482 95.697 105.417 91.2162C105.477 90.9313 105.537 90.6449 105.598 90.357C106.481 86.1674 107.428 81.6728 106.747 76.8787C105.594 68.7575 100.977 64.3247 96.1008 61.1474C94.4838 60.094 92.8088 59.1611 91.2335 58.2838C90.4621 57.8542 89.7144 57.4379 89.0092 57.0272C86.8231 55.7541 85.0212 54.5239 83.8658 53.0414C82.8224 51.7025 82.0076 50.126 81.2108 48.3777C80.9312 47.7642 80.6513 47.1232 80.364 46.4656C79.8455 45.2782 79.3033 44.0367 78.6968 42.805C76.7858 38.9245 74.1356 34.914 69.0061 31.7008C64.8298 29.085 58.1473 28.6801 53.2234 30.8195C50.7412 31.898 48.6475 33.6486 47.5719 36.153C46.4939 38.6631 46.4851 41.8227 47.9645 45.6225C50.2929 51.6033 54.8431 55.6062 58.7607 59.0143C58.8148 59.0614 58.8688 59.1083 58.9227 59.1553C60.8365 60.8198 62.5718 62.3291 63.881 63.8799C65.2202 65.4664 66.0577 67.0333 66.1886 68.7666C66.2755 69.9178 66.0108 71.3304 65.5389 73.0124C65.2438 74.064 64.8824 75.1748 64.4964 76.3608C64.2636 77.076 64.022 77.8184 63.7807 78.5917C62.5141 82.6507 61.318 87.3741 61.953 92.3248C62.3614 95.5095 63.3183 97.8365 64.5315 99.6885C65.7375 101.53 67.183 102.878 68.5075 104.101L68.5763 104.165C69.8905 105.378 71.0552 106.453 71.8929 107.807C72.728 109.157 73.2518 110.812 73.1617 113.186C73.0218 116.867 70.885 119.325 68.1698 122.148C67.9992 122.326 67.8264 122.505 67.6521 122.685C65.0844 125.34 62.176 128.348 60.5532 132.907C58.4013 138.951 59.5519 144.707 61.2089 148.915C62.0385 151.022 63.0004 152.754 63.7553 153.961C64.1331 154.565 64.4598 155.038 64.6936 155.362C64.8105 155.525 64.9043 155.65 64.9697 155.736C65.0023 155.778 65.028 155.811 65.0458 155.834L65.058 155.85L65.0666 155.86L65.0726 155.867L65.0744 155.87L65.075 155.871C65.0751 155.871 65.0754 155.871 65.5985 155.448L65.0754 155.871L65.2772 156.122H113.13L113.332 155.874L112.811 155.448Z" fill="white"/>
<path fill-rule="evenodd" clip-rule="evenodd" d="M4.15691 24.8672C0.0455945 25.3383 -3.84865 56.3213 9.96857 59.92C15.0819 61.2518 23.501 63.776 18.9213 68.8768C16.5886 71.4745 7.21882 74.3887 4.87289 79.6141C3.08588 83.5939 7.64306 95.6706 14.4943 98.8142C22.3389 102.413 29.7545 100.848 30.4123 105.682C31.0699 110.516 19.6631 113.533 18.9585 120.127C18.4628 124.761 26.1595 141.748 51.4156 156.064C66.3219 156.064 78.8137 155.844 78.8137 155.844C78.8137 155.844 90.8357 136.769 93.9044 114.356C96.9736 91.9445 92.2386 84.1026 83.899 83.0497C79.4544 82.4885 70.8803 88.9229 66.5817 87.664C62.9985 86.6146 67.5912 74.5312 67.5912 65.9617C67.5912 57.3925 65.3593 49.7123 61.759 47.893C58.8597 46.4281 50.2423 52.8648 47.3925 54.183C44.5426 55.5015 38.9431 56.867 37.8709 53.9513C36.5537 50.3676 41.2778 40.9988 37.7536 35.7002C33.3477 29.0753 13.5476 23.7914 4.15691 24.8672Z" fill="#EEF7F6"/>
<path d="M10.1919 34.0504C10.0215 34.2146 10.0162 34.4861 10.18 34.6567L10.3321 34.8172C10.4081 34.8981 10.4924 34.9882 10.5849 35.0877L10.7806 35.2991C11.2515 35.8096 11.7948 36.4104 12.4047 37.0994L12.4882 37.1938C14.2908 39.2337 16.2958 41.6105 18.4534 44.3037L18.5912 44.4761C24.9074 52.3758 31.224 61.3295 37.1193 71.1607C44.5056 83.4786 50.6946 96.3021 55.2932 109.466C60.7117 124.977 63.756 140.499 64.0347 155.871C64.0389 156.107 64.2339 156.296 64.4701 156.291C64.7064 156.287 64.8944 156.091 64.8901 155.855C64.6096 140.388 61.5479 124.776 56.1007 109.183C51.4816 95.96 45.2674 83.0845 37.8525 70.7188C32.0021 60.9624 25.7387 52.0678 19.4701 44.2045L19.2589 43.9397C17.1321 41.2799 15.1508 38.9231 13.361 36.8888L13.1286 36.6253C12.5934 36.0194 12.1076 35.4794 11.6749 35.0065L11.4088 34.7169C11.3045 34.6037 11.208 34.4998 11.1198 34.4053L10.7966 34.0623C10.6329 33.8915 10.3621 33.8862 10.1919 34.0504Z" fill="white"/>
<path fill-rule="evenodd" clip-rule="evenodd" d="M220.731 60.4623H252.616V30.2018H220.731V60.4623Z" fill="white"/>
<path fill-rule="evenodd" clip-rule="evenodd" d="M240.825 45.3692C240.825 42.1201 238.197 39.4862 234.956 39.4862C231.714 39.4862 229.086 42.1201 229.086 45.3692C229.086 48.6184 231.714 51.2523 234.956 51.2523C238.197 51.2523 240.825 48.6184 240.825 45.3692ZM229.575 45.3692C229.575 42.3908 231.984 39.9763 234.956 39.9763C237.927 39.9763 240.336 42.3908 240.336 45.3692C240.336 48.3478 237.927 50.7622 234.956 50.7622C231.984 50.7622 229.575 48.3478 229.575 45.3692Z" fill="#141414"/>
<path d="M240.089 54.1927C242.519 54.1927 244.489 52.2181 244.489 49.7823C244.489 47.3465 242.519 45.3718 240.089 45.3718C237.659 45.3718 235.689 47.3465 235.689 49.7823C235.689 52.2181 237.659 54.1927 240.089 54.1927Z" fill="#C3B399"/>
<path fill-rule="evenodd" clip-rule="evenodd" d="M201.25 44.1902H213.44V30.4747H201.25V44.1902Z" fill="white"/>
<path fill-rule="evenodd" clip-rule="evenodd" d="M220.731 24.7789H242.291V0.521484H220.731V24.7789Z" fill="white"/>
<path fill-rule="evenodd" clip-rule="evenodd" d="M236.663 17.8017L231.655 8.98083L226.646 17.8017H236.663ZM227.487 17.3117L231.655 9.97147L235.822 17.3117H227.487Z" fill="#141414"/>
<path fill-rule="evenodd" clip-rule="evenodd" d="M52.0071 24.0854C52.0071 31.1732 46.2747 36.9192 39.2035 36.9192C32.1325 36.9192 26.4 31.1732 26.4 24.0854C26.4 16.9973 32.1325 11.2512 39.2035 11.2512C46.2747 11.2512 52.0071 16.9973 52.0071 24.0854Z" fill="#C3B399"/>
<path fill-rule="evenodd" clip-rule="evenodd" d="M34.7955 24.0853V18.3032L39.791 21.1941L44.7866 24.0853L39.791 26.9762L34.7955 29.8671V24.0853Z" fill="white"/>
<path fill-rule="evenodd" clip-rule="evenodd" d="M203.387 156.861C203.387 156.861 201.618 153.427 205.163 148.012C212.669 136.547 200.531 142.077 197.845 134.247C195.656 127.864 199.301 121.414 195.641 119.705C189.649 116.907 183.403 112.784 187.415 108.118C190.23 104.844 199.927 105.14 203.729 115.214C206.108 121.519 215.484 117.313 223.803 127.3C226.28 130.275 231.72 142.863 228.866 156.861H203.387Z" fill="#F2EEE8"/>
<path fill-rule="evenodd" clip-rule="evenodd" d="M213.327 156.861C213.327 156.861 209.277 151.83 211.241 146.313C212.826 141.863 217.077 140.646 217.219 136.897C217.399 132.17 212.667 132.821 211.919 126.984C211.337 122.449 214.105 118.278 213.922 115.866C213.647 112.217 207.424 110.323 205.288 104.835C202.579 97.8768 211.012 96.2875 214.769 98.6405C219.484 101.594 219.644 106.001 221.711 108.653C224.058 111.666 231.406 112.342 232.461 119.769C233.131 124.48 230.386 128.572 231.68 132.56C232.64 135.523 238.376 136.83 239.583 143.376C240.883 150.422 235.642 156.861 235.642 156.861H213.327Z" fill="#E1D8C8"/>
<path fill-rule="evenodd" clip-rule="evenodd" d="M225.069 156.861H225.564C225.742 155.711 227.299 144.843 224.998 131.899C223.017 120.751 217.014 110.33 212.056 104.294C211.97 104.189 211.816 104.174 211.712 104.26C211.608 104.346 211.593 104.501 211.679 104.605C214.394 107.911 217.082 112.139 219.249 116.51C221.817 121.69 223.639 127.041 224.517 131.984C226.878 145.267 225.153 156.344 225.069 156.861Z" fill="#070707"/>
<path fill-rule="evenodd" clip-rule="evenodd" d="M175.267 52.109H60.1333C56.8258 52.109 54.1444 54.7967 54.1444 58.1121V146.811C54.1444 150.126 56.8258 152.814 60.1333 152.814H175.267C178.574 152.814 181.256 150.126 181.256 146.811V58.1121C181.256 54.7967 178.574 52.109 175.267 52.109ZM60.1333 51.4965C56.4882 51.4965 53.5333 54.4584 53.5333 58.1121V146.811C53.5333 150.465 56.4882 153.427 60.1333 153.427H175.267C178.912 153.427 181.867 150.465 181.867 146.811V58.1121C181.867 54.4584 178.912 51.4965 175.267 51.4965H60.1333Z" fill="#141414"/>
<path fill-rule="evenodd" clip-rule="evenodd" d="M175.267 52.109H60.1333C56.8258 52.109 54.1444 54.7967 54.1444 58.1121V66.3204H181.256V58.1121C181.256 54.7967 178.574 52.109 175.267 52.109ZM60.1333 51.4965C56.4882 51.4965 53.5333 54.4584 53.5333 58.1121V66.933H181.867V58.1121C181.867 54.4584 178.912 51.4965 175.267 51.4965H60.1333Z" fill="#141414"/>
<path fill-rule="evenodd" clip-rule="evenodd" d="M63.9223 61.42C65.0024 61.42 65.8779 60.5424 65.8779 59.4598C65.8779 58.3772 65.0024 57.4996 63.9223 57.4996C62.8422 57.4996 61.9667 58.3772 61.9667 59.4598C61.9667 60.5424 62.8422 61.42 63.9223 61.42ZM63.9223 61.91C65.2724 61.91 66.3668 60.813 66.3668 59.4598C66.3668 58.1065 65.2724 57.0095 63.9223 57.0095C62.5722 57.0095 61.4778 58.1065 61.4778 59.4598C61.4778 60.813 62.5722 61.91 63.9223 61.91Z" fill="#141414"/>
<path fill-rule="evenodd" clip-rule="evenodd" d="M71.7445 61.42C72.8245 61.42 73.7 60.5424 73.7 59.4598C73.7 58.3772 72.8245 57.4996 71.7445 57.4996C70.6644 57.4996 69.7889 58.3772 69.7889 59.4598C69.7889 60.5424 70.6644 61.42 71.7445 61.42ZM71.7445 61.91C73.0945 61.91 74.1889 60.813 74.1889 59.4598C74.1889 58.1065 73.0945 57.0095 71.7445 57.0095C70.3944 57.0095 69.3 58.1065 69.3 59.4598C69.3 60.813 70.3944 61.91 71.7445 61.91Z" fill="#141414"/>
<path fill-rule="evenodd" clip-rule="evenodd" d="M79.5667 61.42C80.6468 61.42 81.5222 60.5424 81.5222 59.4598C81.5222 58.3772 80.6468 57.4996 79.5667 57.4996C78.4866 57.4996 77.6111 58.3772 77.6111 59.4598C77.6111 60.5424 78.4866 61.42 79.5667 61.42ZM79.5667 61.91C80.9167 61.91 82.0111 60.813 82.0111 59.4598C82.0111 58.1065 80.9167 57.0095 79.5667 57.0095C78.2166 57.0095 77.1222 58.1065 77.1222 59.4598C77.1222 60.813 78.2166 61.91 79.5667 61.91Z" fill="#141414"/>
<path fill-rule="evenodd" clip-rule="evenodd" d="M126.807 106.352C126.807 113.44 121.075 119.186 114.003 119.186C106.932 119.186 101.2 113.44 101.2 106.352C101.2 99.2641 106.932 93.5181 114.003 93.5181C121.075 93.5181 126.807 99.2641 126.807 106.352Z" fill="#C3B399"/>
<path fill-rule="evenodd" clip-rule="evenodd" d="M109.596 106.352V100.57L114.591 103.461L119.587 106.352L114.591 109.243L109.596 112.134V106.352Z" fill="white"/>
<path d="M203.5 84.3298H136.156C134.266 84.3298 132.733 85.8657 132.733 87.7602V156.857C132.733 158.752 134.266 160.287 136.156 160.287H203.5C205.39 160.287 206.922 158.752 206.922 156.857V87.7602C206.922 85.8657 205.39 84.3298 203.5 84.3298Z" fill="white"/>
<path fill-rule="evenodd" clip-rule="evenodd" d="M135.775 84.5745C134.367 84.5745 133.222 85.7223 133.222 87.1333V157.239C133.222 158.65 134.367 159.798 135.775 159.798H203.958C205.365 159.798 206.51 158.65 206.51 157.239V87.1333C206.51 85.7223 205.365 84.5745 203.958 84.5745H135.775ZM135.775 160.288C134.098 160.288 132.733 158.92 132.733 157.239V87.1333C132.733 85.4522 134.098 84.0845 135.775 84.0845H203.958C205.635 84.0845 206.999 85.4522 206.999 87.1333V157.239C206.999 158.92 205.635 160.288 203.958 160.288H135.775Z" fill="#141414"/>
<path fill-rule="evenodd" clip-rule="evenodd" d="M206.641 94.0838H132.978C132.843 94.0838 132.734 93.974 132.734 93.8388C132.734 93.7035 132.843 93.5938 132.978 93.5938H206.641C206.776 93.5938 206.886 93.7035 206.886 93.8388C206.886 93.974 206.776 94.0838 206.641 94.0838Z" fill="#141414"/>
<path fill-rule="evenodd" clip-rule="evenodd" d="M142.659 87.9261C142.044 87.9261 141.544 88.4271 141.544 89.043C141.544 89.6589 142.044 90.1599 142.659 90.1599C143.273 90.1599 143.773 89.6589 143.773 89.043C143.773 88.4271 143.273 87.9261 142.659 87.9261ZM142.659 90.6499C141.775 90.6499 141.056 89.9291 141.056 89.043C141.056 88.1569 141.775 87.436 142.659 87.436C143.543 87.436 144.262 88.1569 144.262 89.043C144.262 89.9291 143.543 90.6499 142.659 90.6499Z" fill="#141414"/>
<path fill-rule="evenodd" clip-rule="evenodd" d="M147.284 87.9261C146.67 87.9261 146.17 88.4271 146.17 89.043C146.17 89.6589 146.67 90.1599 147.284 90.1599C147.898 90.1599 148.398 89.6589 148.398 89.043C148.398 88.4271 147.898 87.9261 147.284 87.9261ZM147.284 90.6499C146.4 90.6499 145.681 89.9291 145.681 89.043C145.681 88.1569 146.4 87.436 147.284 87.436C148.168 87.436 148.887 88.1569 148.887 89.043C148.887 89.9291 148.168 90.6499 147.284 90.6499Z" fill="#141414"/>
<path fill-rule="evenodd" clip-rule="evenodd" d="M139.392 89.0436C139.392 89.7959 138.784 90.4056 138.034 90.4056C137.283 90.4056 136.675 89.7959 136.675 89.0436C136.675 88.2914 137.283 87.6816 138.034 87.6816C138.784 87.6816 139.392 88.2914 139.392 89.0436Z" fill="#FF4B33"/>
<path fill-rule="evenodd" clip-rule="evenodd" d="M138.033 87.9261C137.418 87.9261 136.918 88.4271 136.918 89.043C136.918 89.6589 137.418 90.1599 138.033 90.1599C138.647 90.1599 139.147 89.6589 139.147 89.043C139.147 88.4271 138.647 87.9261 138.033 87.9261ZM138.033 90.6499C137.149 90.6499 136.43 89.9291 136.43 89.043C136.43 88.1569 137.149 87.436 138.033 87.436C138.917 87.436 139.636 88.1569 139.636 89.043C139.636 89.9291 138.917 90.6499 138.033 90.6499Z" fill="#141414"/>
<path fill-rule="evenodd" clip-rule="evenodd" d="M151.433 152.569V117.653H146.911V152.569H151.433ZM168.056 152.569V134.927H163.533V152.569H168.056ZM160.111 127.332V152.569H155.589V127.332H160.111ZM176.856 152.569V140.195H172.333V152.569H176.856ZM185.533 143.013V152.569H181.011V143.013H185.533ZM192.989 152.569V140.808H188.467V152.569H192.989Z" fill="#EEF7F6"/>
<path d="M182.384 123.259L168.045 130.95L150.995 104.888L152.732 103.886L147.156 100.256L147.514 106.896L148.975 106.053L167.265 134.01L181.606 126.317L190.797 140.318L192.744 139.041L182.384 123.259Z" fill="#73C1BA"/>
</svg>
