<?xml version="1.0" encoding="UTF-8" standalone="no"?>
<svg width="266px" height="266px" viewBox="0 0 266 266" version="1.1" xmlns="http://www.w3.org/2000/svg" xmlns:xlink="http://www.w3.org/1999/xlink" xmlns:sketch="http://www.bohemiancoding.com/sketch/ns">
    <!-- Generator: Sketch 3.2.2 (9983) - http://www.bohemiancoding.com/sketch -->
    <title>logo</title>
    <desc>Created with Sketch.</desc>
    <defs></defs>
    <g id="Page-1" stroke="none" stroke-width="1" fill="none" fill-rule="evenodd" sketch:type="MSPage">
        <g id="logo" sketch:type="MSArtboardGroup">
            <g id="Imported-Layers" sketch:type="MSLayerGroup" transform="translate(61.000000, 78.000000)" fill="#73C1BA">
                <path d="M56.9134091,0.250681818 L5.74568182,0.250681818 C2.71272727,0.250681818 0.322045455,2.64136364 0.322045455,5.67431818 L0.322045455,103.388977 C0.322045455,106.404091 2.71272727,108.794773 5.74568182,108.794773 C8.77863636,108.794773 11.1693182,106.404091 11.1693182,103.388977 L11.1693182,59.7144318 L46.2267045,59.7144318 C48.9385227,59.7144318 51.1686364,57.4843182 51.1686364,54.7725 C51.1686364,52.0606818 48.9385227,49.8305682 46.2267045,49.8305682 L11.1693182,49.8305682 L11.1693182,10.1345455 L56.9134091,10.1345455 C59.6252273,10.1345455 61.8553409,7.90443182 61.8553409,5.19261364 C61.8553409,2.48079545 59.6252273,0.250681818 56.9134091,0.250681818" id="Fill-1" sketch:type="MSShapeGroup"></path>
                <path d="M105.851023,0.250681818 L83.3893182,0.250681818 C80.3563636,0.250681818 77.9656818,2.64136364 77.9656818,5.67431818 L77.9656818,66.7045 L71.9104773,60.6510795 C69.7784886,58.5190909 66.3976364,58.5190909 64.2531591,60.6635682 C62.1086818,62.8080455 62.1086818,66.1888977 64.2406705,68.3208864 L79.2912614,83.3714773 C81.4357386,85.5159545 84.8165909,85.5159545 86.9610682,83.3714773 L102.595057,67.7374886 C104.625352,65.7071932 104.625352,62.5529205 102.595057,60.522625 C100.562977,58.4905455 97.4087045,58.4905455 95.3784091,60.522625 L88.8129545,67.0862955 L88.8129545,10.1345455 L105.851023,10.1345455 C129.615114,10.1345455 144.119773,21.1423864 144.119773,53.9696591 C144.119773,87.1180682 129.615114,97.6442045 105.851023,97.6442045 L82.934375,97.6442045 C80.069125,97.6442045 77.8461477,99.8083068 77.8461477,102.595057 C77.8461477,105.381807 80.069125,107.545909 82.934375,107.545909 L86.6524205,107.545909 L86.6524205,107.528068 L105.851023,107.528068 C136.305455,107.528068 155.109773,93.3445455 155.109773,53.9696591 C155.109773,14.5947727 136.305455,0.250681818 105.851023,0.250681818" id="Fill-2" sketch:type="MSShapeGroup"></path>
            </g>
            <circle id="Oval-106" stroke="#73C1BA" stroke-width="11" sketch:type="MSShapeGroup" cx="133" cy="133" r="127"></circle>
        </g>
    </g>
</svg>